<svg width="223" height="179" viewBox="0 0 223 179" fill="none" xmlns="http://www.w3.org/2000/svg">
<path d="M22 123V20H188V123H22Z" fill="#4084B6"/>
<path d="M43 164L22 125H188L209 164H43Z" fill="#4E4E4E"/>
<path d="M44.5 162L23.5 123H186L207 162H44.5Z" fill="#3C3C3C"/>
<path d="M209 162H43L32.5 142.5H198.5L209 162Z" fill="#434343"/>
<path d="M23 125L22 123H188L189 125H23Z" fill="#434343"/>
<rect width="6" height="6" transform="translate(22 117)" fill="#4084B6"/>
<path d="M22 123V20H25V123H22Z" fill="#3F3F3F"/>
<path d="M185 123V20H188V123H185Z" fill="#3F3F3F"/>
<path d="M24 123V120H186V123H24Z" fill="#3F3F3F"/>
<path d="M24 23V20H186V23H24Z" fill="#3F3F3F"/>
<path d="M43 162V164L22 125V123L43 162Z" fill="#282828"/>
<path d="M43 164V162H209V164H43Z" fill="#3F3F3F"/>
<path d="M21 123L22 125V20L21 19V123Z" fill="#282828"/>
<path d="M22 20L21 19H187L188 20H22Z" fill="#4E4E4E"/>
<path d="M103.829 160L96.3289 145H134.5L142 160H103.829Z" fill="#505050"/>
<path d="M96.1712 141.5L95 139H129.829L131 141.5H96.1712Z" fill="#353535"/>
<path d="M42.3623 35H41.127L37.958 29.9561V35H36.7227V27.8906H37.958L41.1367 32.9541V27.8906H42.3623V35ZM45.0576 32.3584V35H43.8223V27.8906H46.542C47.3363 27.8906 47.9661 28.0973 48.4316 28.5107C48.9004 28.9242 49.1348 29.471 49.1348 30.1514C49.1348 30.848 48.9053 31.39 48.4463 31.7773C47.9906 32.1647 47.3509 32.3584 46.5273 32.3584H45.0576ZM45.0576 31.3672H46.542C46.9814 31.3672 47.3167 31.2646 47.5479 31.0596C47.779 30.8512 47.8945 30.5518 47.8945 30.1611C47.8945 29.777 47.7773 29.471 47.543 29.2432C47.3086 29.012 46.9863 28.8932 46.5762 28.8867H45.0576V31.3672Z" fill="white"/>
<path d="M42.3672 75H41.1367V71.8408H37.958V75H36.7227V67.8906H37.958V70.8496H41.1367V67.8906H42.3672V75ZM46.0439 75.0977C45.292 75.0977 44.6816 74.8617 44.2129 74.3896C43.7474 73.9144 43.5146 73.2829 43.5146 72.4951V72.3486C43.5146 71.8213 43.6156 71.3509 43.8174 70.9375C44.0225 70.5208 44.3089 70.1969 44.6768 69.9658C45.0446 69.7347 45.4548 69.6191 45.9072 69.6191C46.6266 69.6191 47.1816 69.8486 47.5723 70.3076C47.9661 70.7666 48.1631 71.416 48.1631 72.2559V72.7344H44.7109C44.7467 73.1706 44.8916 73.5156 45.1455 73.7695C45.4027 74.0234 45.7249 74.1504 46.1123 74.1504C46.6559 74.1504 47.0986 73.9307 47.4404 73.4912L48.0801 74.1016C47.8685 74.4173 47.5853 74.6631 47.2305 74.8389C46.8789 75.0114 46.4834 75.0977 46.0439 75.0977ZM45.9023 70.5713C45.5768 70.5713 45.3132 70.6852 45.1113 70.9131C44.9128 71.141 44.7858 71.4583 44.7305 71.8652H46.9912V71.7773C46.9652 71.3802 46.8594 71.0807 46.6738 70.8789C46.4883 70.6738 46.2311 70.5713 45.9023 70.5713ZM50.3506 75H49.1641V67.5H50.3506V75ZM52.9092 75H51.7227V67.5H52.9092V75ZM53.9834 72.3096C53.9834 71.792 54.0859 71.3265 54.291 70.9131C54.4961 70.4964 54.7842 70.1774 55.1553 69.9561C55.5264 69.7314 55.9528 69.6191 56.4346 69.6191C57.1475 69.6191 57.7253 69.8486 58.168 70.3076C58.6139 70.7666 58.8548 71.3753 58.8906 72.1338L58.8955 72.4121C58.8955 72.9329 58.7946 73.3984 58.5928 73.8086C58.3942 74.2188 58.1077 74.5361 57.7334 74.7607C57.3623 74.9854 56.9326 75.0977 56.4443 75.0977C55.6989 75.0977 55.1016 74.8503 54.6523 74.3555C54.2064 73.8574 53.9834 73.195 53.9834 72.3682V72.3096ZM55.1699 72.4121C55.1699 72.9557 55.2822 73.3822 55.5068 73.6914C55.7314 73.9974 56.0439 74.1504 56.4443 74.1504C56.8447 74.1504 57.1556 73.9941 57.377 73.6816C57.6016 73.3691 57.7139 72.9118 57.7139 72.3096C57.7139 71.7757 57.5983 71.3525 57.3672 71.04C57.1393 70.7275 56.8285 70.5713 56.4346 70.5713C56.0472 70.5713 55.7396 70.7259 55.5117 71.0352C55.2839 71.3411 55.1699 71.8001 55.1699 72.4121ZM68.0801 73.2422L69.1738 67.8906H70.3994L68.7588 75H67.5771L66.2246 69.8096L64.8428 75H63.6562L62.0156 67.8906H63.2412L64.3447 73.2324L65.7021 67.8906H66.7373L68.0801 73.2422ZM70.8096 72.3096C70.8096 71.792 70.9121 71.3265 71.1172 70.9131C71.3223 70.4964 71.6104 70.1774 71.9814 69.9561C72.3525 69.7314 72.779 69.6191 73.2607 69.6191C73.9736 69.6191 74.5514 69.8486 74.9941 70.3076C75.4401 70.7666 75.681 71.3753 75.7168 72.1338L75.7217 72.4121C75.7217 72.9329 75.6208 73.3984 75.4189 73.8086C75.2204 74.2188 74.9339 74.5361 74.5596 74.7607C74.1885 74.9854 73.7588 75.0977 73.2705 75.0977C72.5251 75.0977 71.9277 74.8503 71.4785 74.3555C71.0326 73.8574 70.8096 73.195 70.8096 72.3682V72.3096ZM71.9961 72.4121C71.9961 72.9557 72.1084 73.3822 72.333 73.6914C72.5576 73.9974 72.8701 74.1504 73.2705 74.1504C73.6709 74.1504 73.9818 73.9941 74.2031 73.6816C74.4277 73.3691 74.54 72.9118 74.54 72.3096C74.54 71.7757 74.4245 71.3525 74.1934 71.04C73.9655 70.7275 73.6546 70.5713 73.2607 70.5713C72.8734 70.5713 72.5658 70.7259 72.3379 71.0352C72.11 71.3411 71.9961 71.8001 71.9961 72.4121ZM79.4912 70.8008C79.335 70.7747 79.1738 70.7617 79.0078 70.7617C78.4642 70.7617 78.098 70.9701 77.9092 71.3867V75H76.7227V69.7168H77.8555L77.8848 70.3076C78.1712 69.8486 78.5684 69.6191 79.0762 69.6191C79.2454 69.6191 79.3854 69.6419 79.4961 69.6875L79.4912 70.8008ZM81.5029 75H80.3164V67.5H81.5029V75ZM82.5771 72.3193C82.5771 71.5055 82.766 70.8529 83.1436 70.3613C83.5212 69.8665 84.0273 69.6191 84.6621 69.6191C85.222 69.6191 85.6745 69.8145 86.0195 70.2051V67.5H87.2061V75H86.1318L86.0732 74.4531C85.7184 74.8828 85.2448 75.0977 84.6523 75.0977C84.0339 75.0977 83.5326 74.8486 83.1484 74.3506C82.7676 73.8525 82.5771 73.1755 82.5771 72.3193ZM83.7637 72.4219C83.7637 72.959 83.8662 73.3789 84.0713 73.6816C84.2796 73.9811 84.5742 74.1309 84.9551 74.1309C85.4401 74.1309 85.7949 73.9144 86.0195 73.4814V71.2256C85.8014 70.8024 85.4499 70.5908 84.9648 70.5908C84.5807 70.5908 84.2845 70.7438 84.0762 71.0498C83.8678 71.3525 83.7637 71.8099 83.7637 72.4219Z" fill="white"/>
<path d="M136.91 31H136.541V30.0522H135.587V31H135.217V28.8672H135.587V29.7549H136.541V28.8672H136.91V31ZM137.249 30.1929C137.249 30.0376 137.279 29.8979 137.341 29.7739C137.402 29.6489 137.489 29.5532 137.6 29.4868C137.711 29.4194 137.839 29.3857 137.984 29.3857C138.198 29.3857 138.371 29.4546 138.504 29.5923C138.638 29.73 138.71 29.9126 138.721 30.1401L138.722 30.2236C138.722 30.3799 138.692 30.5195 138.631 30.6426C138.572 30.7656 138.486 30.8608 138.374 30.9282C138.262 30.9956 138.133 31.0293 137.987 31.0293C137.763 31.0293 137.584 30.9551 137.449 30.8066C137.315 30.6572 137.249 30.4585 137.249 30.2104V30.1929ZM137.604 30.2236C137.604 30.3867 137.638 30.5146 137.706 30.6074C137.773 30.6992 137.867 30.7451 137.987 30.7451C138.107 30.7451 138.2 30.6982 138.267 30.6045C138.334 30.5107 138.368 30.3735 138.368 30.1929C138.368 30.0327 138.333 29.9058 138.264 29.812C138.195 29.7183 138.102 29.6714 137.984 29.6714C137.868 29.6714 137.775 29.7178 137.707 29.8105C137.639 29.9023 137.604 30.04 137.604 30.2236ZM139.358 29.415L139.368 29.5806C139.479 29.4507 139.632 29.3857 139.825 29.3857C140.037 29.3857 140.182 29.4668 140.26 29.6289C140.375 29.4668 140.538 29.3857 140.747 29.3857C140.921 29.3857 141.051 29.4341 141.136 29.5308C141.222 29.6274 141.266 29.77 141.268 29.9585V31H140.912V29.9688C140.912 29.8682 140.89 29.7944 140.846 29.7476C140.802 29.7007 140.729 29.6772 140.628 29.6772C140.547 29.6772 140.48 29.6992 140.429 29.7432C140.378 29.7861 140.342 29.8428 140.322 29.9131L140.323 31H139.967V29.957C139.962 29.7705 139.867 29.6772 139.682 29.6772C139.539 29.6772 139.438 29.7354 139.378 29.8516V31H139.022V29.415H139.358ZM142.332 31.0293C142.106 31.0293 141.923 30.9585 141.782 30.8169C141.643 30.6743 141.573 30.4849 141.573 30.2485V30.2046C141.573 30.0464 141.603 29.9053 141.664 29.7812C141.725 29.6562 141.811 29.5591 141.921 29.4897C142.032 29.4204 142.155 29.3857 142.291 29.3857C142.506 29.3857 142.673 29.4546 142.79 29.5923C142.908 29.73 142.967 29.9248 142.967 30.1768V30.3203H141.932C141.942 30.4512 141.986 30.5547 142.062 30.6309C142.139 30.707 142.236 30.7451 142.352 30.7451C142.515 30.7451 142.648 30.6792 142.75 30.5474L142.942 30.7305C142.879 30.8252 142.794 30.8989 142.688 30.9517C142.582 31.0034 142.463 31.0293 142.332 31.0293ZM142.289 29.6714C142.191 29.6714 142.112 29.7056 142.052 29.7739C141.992 29.8423 141.954 29.9375 141.938 30.0596H142.616V30.0332C142.608 29.9141 142.576 29.8242 142.521 29.7637C142.465 29.7021 142.388 29.6714 142.289 29.6714Z" fill="white"/>
<path d="M151.411 30.5034H150.584L150.412 31H150.026L150.832 28.8672H151.165L151.972 31H151.585L151.411 30.5034ZM150.688 30.2046H151.307L150.998 29.3198L150.688 30.2046ZM153.571 30.2236C153.571 30.4697 153.516 30.6655 153.406 30.811C153.296 30.9565 153.146 31.0293 152.953 31.0293C152.768 31.0293 152.623 30.9624 152.52 30.8286L152.502 31H152.18V28.75H152.536V29.5674C152.638 29.4463 152.776 29.3857 152.95 29.3857C153.144 29.3857 153.295 29.4575 153.406 29.6011C153.516 29.7446 153.571 29.9453 153.571 30.2031V30.2236ZM153.215 30.1929C153.215 30.021 153.185 29.8921 153.125 29.8062C153.064 29.7202 152.976 29.6772 152.861 29.6772C152.707 29.6772 152.598 29.7446 152.536 29.8794V30.5327C152.599 30.6704 152.708 30.7393 152.864 30.7393C152.975 30.7393 153.061 30.6978 153.122 30.6147C153.182 30.5317 153.213 30.4062 153.215 30.2383V30.1929ZM153.804 30.1929C153.804 30.0376 153.835 29.8979 153.896 29.7739C153.958 29.6489 154.044 29.5532 154.156 29.4868C154.267 29.4194 154.395 29.3857 154.54 29.3857C154.753 29.3857 154.927 29.4546 155.06 29.5923C155.193 29.73 155.266 29.9126 155.276 30.1401L155.278 30.2236C155.278 30.3799 155.248 30.5195 155.187 30.6426C155.127 30.7656 155.042 30.8608 154.929 30.9282C154.818 30.9956 154.689 31.0293 154.542 31.0293C154.319 31.0293 154.14 30.9551 154.005 30.8066C153.871 30.6572 153.804 30.4585 153.804 30.2104V30.1929ZM154.16 30.2236C154.16 30.3867 154.194 30.5146 154.261 30.6074C154.329 30.6992 154.422 30.7451 154.542 30.7451C154.663 30.7451 154.756 30.6982 154.822 30.6045C154.89 30.5107 154.923 30.3735 154.923 30.1929C154.923 30.0327 154.889 29.9058 154.819 29.812C154.751 29.7183 154.658 29.6714 154.54 29.6714C154.423 29.6714 154.331 29.7178 154.263 29.8105C154.194 29.9023 154.16 30.04 154.16 30.2236ZM156.539 30.8447C156.435 30.9678 156.286 31.0293 156.094 31.0293C155.922 31.0293 155.792 30.979 155.703 30.8784C155.615 30.7778 155.571 30.6323 155.571 30.4419V29.415H155.927V30.4375C155.927 30.6387 156.01 30.7393 156.177 30.7393C156.35 30.7393 156.467 30.6772 156.527 30.5532V29.415H156.883V31H156.548L156.539 30.8447ZM157.692 29.0298V29.415H157.972V29.6787H157.692V30.5635C157.692 30.624 157.704 30.668 157.727 30.6953C157.751 30.7217 157.794 30.7349 157.856 30.7349C157.897 30.7349 157.938 30.73 157.98 30.7202V30.9956C157.899 31.0181 157.821 31.0293 157.746 31.0293C157.473 31.0293 157.336 30.8784 157.336 30.5767V29.6787H157.075V29.415H157.336V29.0298H157.692Z" fill="white"/>
<path d="M166.844 30.3057C166.823 30.5332 166.739 30.7109 166.592 30.8389C166.446 30.9658 166.251 31.0293 166.008 31.0293C165.838 31.0293 165.688 30.9893 165.558 30.9092C165.429 30.8281 165.33 30.7134 165.259 30.5649C165.189 30.4165 165.152 30.2441 165.149 30.0479V29.8486C165.149 29.6475 165.185 29.4702 165.256 29.3169C165.328 29.1636 165.43 29.0454 165.562 28.9624C165.696 28.8794 165.851 28.8379 166.025 28.8379C166.261 28.8379 166.45 28.9019 166.594 29.0298C166.737 29.1577 166.821 29.3384 166.844 29.5718H166.475C166.458 29.4185 166.413 29.3081 166.34 29.2407C166.269 29.1724 166.164 29.1382 166.025 29.1382C165.864 29.1382 165.74 29.1973 165.653 29.3154C165.567 29.4326 165.523 29.605 165.521 29.8325V30.0215C165.521 30.252 165.562 30.4277 165.645 30.5488C165.728 30.6699 165.849 30.7305 166.008 30.7305C166.153 30.7305 166.263 30.6978 166.336 30.6323C166.409 30.5669 166.456 30.458 166.475 30.3057H166.844ZM167.076 30.1929C167.076 30.0376 167.106 29.8979 167.168 29.7739C167.229 29.6489 167.316 29.5532 167.427 29.4868C167.539 29.4194 167.667 29.3857 167.811 29.3857C168.025 29.3857 168.198 29.4546 168.331 29.5923C168.465 29.73 168.537 29.9126 168.548 30.1401L168.549 30.2236C168.549 30.3799 168.519 30.5195 168.458 30.6426C168.399 30.7656 168.313 30.8608 168.201 30.9282C168.089 30.9956 167.96 31.0293 167.814 31.0293C167.59 31.0293 167.411 30.9551 167.276 30.8066C167.143 30.6572 167.076 30.4585 167.076 30.2104V30.1929ZM167.432 30.2236C167.432 30.3867 167.465 30.5146 167.533 30.6074C167.6 30.6992 167.694 30.7451 167.814 30.7451C167.934 30.7451 168.027 30.6982 168.094 30.6045C168.161 30.5107 168.195 30.3735 168.195 30.1929C168.195 30.0327 168.16 29.9058 168.091 29.812C168.022 29.7183 167.929 29.6714 167.811 29.6714C167.695 29.6714 167.603 29.7178 167.534 29.8105C167.466 29.9023 167.432 30.04 167.432 30.2236ZM169.181 29.415L169.191 29.5981C169.308 29.4565 169.462 29.3857 169.652 29.3857C169.982 29.3857 170.15 29.5747 170.156 29.9526V31H169.8V29.9731C169.8 29.8726 169.778 29.7983 169.734 29.7505C169.691 29.7017 169.621 29.6772 169.522 29.6772C169.378 29.6772 169.271 29.7422 169.201 29.8721V31H168.845V29.415H169.181ZM170.966 29.0298V29.415H171.246V29.6787H170.966V30.5635C170.966 30.624 170.978 30.668 171.001 30.6953C171.026 30.7217 171.069 30.7349 171.13 30.7349C171.171 30.7349 171.213 30.73 171.255 30.7202V30.9956C171.174 31.0181 171.096 31.0293 171.021 31.0293C170.747 31.0293 170.61 30.8784 170.61 30.5767V29.6787H170.35V29.415H170.61V29.0298H170.966ZM172.466 31C172.451 30.9697 172.437 30.9204 172.425 30.8521C172.312 30.9702 172.173 31.0293 172.009 31.0293C171.85 31.0293 171.72 30.9839 171.62 30.8931C171.519 30.8022 171.469 30.6899 171.469 30.5562C171.469 30.3872 171.531 30.2578 171.656 30.168C171.782 30.0771 171.962 30.0317 172.195 30.0317H172.414V29.9277C172.414 29.8457 172.391 29.7803 172.345 29.7314C172.299 29.6816 172.229 29.6567 172.135 29.6567C172.054 29.6567 171.988 29.6772 171.936 29.7183C171.884 29.7583 171.858 29.8096 171.858 29.8721H171.502C171.502 29.7852 171.531 29.7041 171.589 29.6289C171.646 29.5527 171.725 29.4932 171.823 29.4502C171.923 29.4072 172.034 29.3857 172.156 29.3857C172.341 29.3857 172.489 29.4326 172.6 29.5264C172.71 29.6191 172.767 29.75 172.77 29.9189V30.6338C172.77 30.7764 172.79 30.8901 172.83 30.9751V31H172.466ZM172.075 30.7437C172.146 30.7437 172.211 30.7266 172.273 30.6924C172.335 30.6582 172.382 30.6123 172.414 30.5547V30.2559H172.222C172.09 30.2559 171.991 30.2788 171.924 30.3247C171.858 30.3706 171.825 30.4355 171.825 30.5195C171.825 30.5879 171.847 30.6426 171.892 30.6836C171.938 30.7236 171.999 30.7437 172.075 30.7437ZM173.793 30.7451C173.882 30.7451 173.956 30.7192 174.015 30.6675C174.073 30.6157 174.104 30.5518 174.108 30.4756H174.444C174.44 30.5742 174.409 30.6665 174.352 30.7524C174.294 30.8374 174.216 30.9048 174.117 30.9546C174.019 31.0044 173.912 31.0293 173.798 31.0293C173.576 31.0293 173.4 30.9575 173.271 30.814C173.141 30.6704 173.076 30.4722 173.076 30.2192V30.1826C173.076 29.9414 173.14 29.7485 173.269 29.604C173.398 29.4585 173.574 29.3857 173.796 29.3857C173.985 29.3857 174.138 29.4409 174.256 29.5513C174.375 29.6606 174.438 29.8047 174.444 29.9834H174.108C174.104 29.8926 174.073 29.8179 174.015 29.7593C173.957 29.7007 173.883 29.6714 173.793 29.6714C173.678 29.6714 173.589 29.7134 173.527 29.7974C173.464 29.8804 173.433 30.0068 173.432 30.1768V30.2339C173.432 30.4058 173.462 30.5342 173.524 30.6191C173.586 30.7031 173.676 30.7451 173.793 30.7451ZM175.159 29.0298V29.415H175.438V29.6787H175.159V30.5635C175.159 30.624 175.17 30.668 175.194 30.6953C175.218 30.7217 175.261 30.7349 175.323 30.7349C175.364 30.7349 175.405 30.73 175.447 30.7202V30.9956C175.366 31.0181 175.288 31.0293 175.213 31.0293C174.939 31.0293 174.803 30.8784 174.803 30.5767V29.6787H174.542V29.415H174.803V29.0298H175.159Z" fill="white"/>
<path d="M118 82.9655V54L122 61.0345V90L118 82.9655Z" fill="#00396F"/>
<path d="M131 83V54H164V83H131Z" fill="#38A0FF" fill-opacity="0.62"/>
<path d="M131 83V54H164V83H131Z" fill="#38A0FF" fill-opacity="0.62"/>
<path d="M164 82.9655V54L168 61.0345V90L164 82.9655Z" fill="#38A0FF"/>
<path d="M135.022 61L131 54H163.978L168 61H135.022Z" fill="#9FD1FF"/>
<path d="M135.022 90L131 83H163.978L168 90H135.022Z" fill="#2D608F"/>
<path d="M116 82.9655V54L120 61.0345V90L116 82.9655Z" fill="#1E5F9B"/>
<path d="M135 90V61H168V90H135Z" fill="#41A4FF"/>
<path d="M120 90H122V61H120V90Z" fill="#41A4FF"/>
<path d="M118 54L122 61H120L116 54H118Z" fill="#9FD1FF"/>
<path d="M198.5 142.5L189 125H187L196.5 142.5H198.5Z" fill="#434343"/>
<path d="M34.5 142.5L25 125H23L32.5 142.5H34.5Z" fill="#434343"/>
</svg>
