<svg width="76" height="63" viewBox="0 0 76 63" fill="none" xmlns="http://www.w3.org/2000/svg">
<path d="M14 41.9655V13L18 20.0345V49L14 41.9655Z" fill="#00396F"/>
<path d="M27 42V13H60V42H27Z" fill="#38A0FF" fill-opacity="0.62"/>
<path d="M27 42V13H60V42H27Z" fill="#38A0FF" fill-opacity="0.62"/>
<path d="M60 41.9655V13L64 20.0345V49L60 41.9655Z" fill="#38A0FF"/>
<path d="M31.0217 20L27 13H59.9783L64 20H31.0217Z" fill="#9FD1FF"/>
<path d="M31.0217 49L27 42H59.9783L64 49H31.0217Z" fill="#2D608F"/>
<path d="M12 41.9655V13L16 20.0345V49L12 41.9655Z" fill="#1E5F9B"/>
<path d="M31 49V20H64V49H31Z" fill="#41A4FF"/>
<path d="M16 49H18V20H16V49Z" fill="#41A4FF"/>
<path d="M14 13L18 20H16L12 13H14Z" fill="#9FD1FF"/>
</svg>
