<svg width="350" height="350" viewBox="0 0 350 350" fill="none" xmlns="http://www.w3.org/2000/svg">
<g clip-path="url(#clip0)">
<path d="M287.793 276.855V339.746C287.793 345.488 283.282 350 277.539 350H235.293L175 317.871L114.707 350H72.4609C66.7181 350 62.207 345.488 62.207 339.746V276.855C62.207 237.275 94.4043 205.078 133.984 205.078H216.016C255.596 205.078 287.793 237.275 287.793 276.855Z" fill="#38A0FF"/>
<path d="M287.793 276.855V339.746C287.793 345.488 283.282 350 277.539 350H235.293L175 317.871V205.078H216.016C255.596 205.078 287.793 237.275 287.793 276.855Z" fill="#358DDF"/>
<path d="M254.57 249.579C252.52 247.324 249.648 246.094 246.777 246.094H103.223C100.352 246.094 97.4798 247.324 95.4297 249.579C93.5847 251.835 92.7637 254.706 92.9688 257.577L104.453 350H245.547L257.031 257.578C257.236 254.706 256.415 251.835 254.57 249.579Z" fill="#575F64"/>
<path d="M267.285 123.047C267.285 134.326 258.057 143.555 246.777 143.555H243.7C232.216 189.492 180.127 204.053 177.666 204.667C176.846 204.872 175.82 205.078 175 205.078C174.18 205.078 173.154 204.873 172.334 204.667C169.873 204.053 117.784 189.492 106.3 143.555H103.223C91.9434 143.555 82.7148 134.326 82.7148 123.047C82.7148 109.511 85.7917 96.1816 91.9434 84.2871L103.223 61.5234H246.777L258.057 84.2871C264.208 96.1816 267.285 109.511 267.285 123.047Z" fill="#FFE0D6"/>
<path d="M267.285 123.047C267.285 134.326 258.057 143.555 246.777 143.555H243.7C232.216 189.492 180.127 204.053 177.666 204.667C176.846 204.872 175.82 205.078 175 205.078V61.5234H246.777L258.057 84.2871C264.208 96.1816 267.285 109.511 267.285 123.047Z" fill="#FDCDBF"/>
<path d="M257.031 257.578L245.547 350H175V246.094H246.777C249.648 246.094 252.52 247.324 254.57 249.579C256.415 251.835 257.236 254.706 257.031 257.578Z" fill="#474F54"/>
<path d="M82.7148 123.047C82.7148 111.768 91.9434 102.539 103.223 102.539C105.288 102.539 136.05 102.539 133.984 102.539C139.652 102.539 144.238 97.9528 144.238 92.2852C144.238 84.4546 147.293 76.8141 152.62 71.3269C154.843 69.0341 155.874 65.8294 155.403 62.665C154.923 59.5109 153.01 56.7472 150.206 55.205C139.982 49.5776 131.921 40.4749 127.485 29.56C126.204 26.4154 123.44 24.1028 120.116 23.3919C116.761 22.6912 113.326 23.6722 110.883 26.0258C92.979 43.2188 82.7148 67.3716 82.7148 92.2852V123.047Z" fill="#917957"/>
<path d="M267.285 92.2852V123.047C267.285 111.768 258.057 102.539 246.777 102.539C246.777 102.539 218.066 102.539 216.016 102.539C210.273 102.539 205.762 98.0267 205.762 92.2852C205.762 88.7981 205.146 85.3118 203.915 82.0312H175C162.9 82.0312 151.415 79.1602 140.342 73.2129C125.986 65.2148 114.707 52.5 108.555 37.3242C105.069 28.5059 103.223 19.4824 103.223 10.2539C103.223 7.58789 104.248 4.92188 106.3 3.07686C108.145 1.02539 110.811 0 113.477 0H175C225.859 0 267.285 41.4265 267.285 92.2852Z" fill="#9A8463"/>
<path d="M267.285 92.2852V123.047C267.285 111.768 258.057 102.539 246.777 102.539C246.777 102.539 218.066 102.539 216.016 102.539C210.273 102.539 205.762 98.0267 205.762 92.2852C205.762 88.7981 205.146 85.3118 203.915 82.0312H175V0C225.859 0 267.285 41.4265 267.285 92.2852Z" fill="#917957"/>
<path d="M175 307.617C180.663 307.617 185.254 303.026 185.254 297.363C185.254 291.7 180.663 287.109 175 287.109C169.337 287.109 164.746 291.7 164.746 297.363C164.746 303.026 169.337 307.617 175 307.617Z" fill="#F0F7FF"/>
<path d="M185.254 297.363C185.254 303.105 180.743 307.617 175 307.617V287.109C180.743 287.109 185.254 291.62 185.254 297.363Z" fill="#DFE7F4"/>
</g>
<defs>
<clipPath id="clip0">
<rect width="350" height="350" fill="white"/>
</clipPath>
</defs>
</svg>
